<svg xmlns="http://www.w3.org/2000/svg" width="1839" height="371" viewBox="0 0 1839 371"><defs><style>.cls-1{fill-rule:evenodd;fill:#FFF;}</style></defs><path id="t2" class="cls-1" d="M745.771,285.62a3.046,3.046,0,0,0-1.625-2.125l-5.375-4a3.594,3.594,0,0,0-2.25-.875,3.1,3.1,0,0,0-1.75,1l-3.75,4H699.4c0.125-2.375.125-14.125,0.375-16.75,3-2,4-3,4-4.125,0-.875-1-1.5-2-1.75l-13.5-3.75c1.875,5,2.25,6.75,2.625,26.375H660.271L648.4,277.745c1.25,5.5,1.25,15.375,1.25,21,0,8.625-.25,19.5-0.5,26.625,0,1.375-.375,4-0.375,6.125,0,1.5,0,4.125,3.625,4.125,0.5,0,6.5,0,6.5-6.375,0-.875-0.25-4.875-0.25-5.875H690.9c0,13.125,0,18.875-1.125,37.75,0,0.625-.125,2.75-0.125,3.25,0,1.375,0,4.625,4,4.625a7.864,7.864,0,0,0,5.625-2.375c1-1,1.125-2.25,1.125-3.75,0-.125-0.25-2.375-0.25-3.625-0.75-14.375-.75-33.25-0.75-35.875h33c-0.125,5.875-.125,8,3.125,8,3.5,0,6.75-2.125,6.75-5.5,0-1.25-.5-7.375-0.5-8.75s-0.625-16.125-.375-27C744.146,288,745.771,286.62,745.771,285.62ZM732.4,320.37h-33c0-3.625-.125-19.625-0.125-23,0-3.25.125-8.5,0.125-10.75h33v33.75Zm-41.375-24.125c0,1.625-.125,21.125-0.125,24.125H658.521V286.62H690.9C691.021,289.62,691.021,294.12,691.021,296.245Zm120.375-27.5-11.875-6.5c1.125,7.25,1.75,11.625,1.75,36.125,0,18-.375,36.125-0.875,54.25,0,1.375-.375,7.75-0.375,9.25,0,2.75,2,3.5,3.75,3.5,2.125,0,5.875-1,6.75-3.875,0.125-.5.125-4.25,0.125-5H881.4c-0.25,5-.5,7.25,3.5,7.25,2.75,0,7.125-1.375,7.125-6.5,0-1.75-.75-10.625-0.75-12.5-0.625-20.375-.875-56.25-0.5-68.5,1.125-.5,5.25-2.375,5.25-4.125A2.717,2.717,0,0,0,894.646,270l-6.75-5a3.707,3.707,0,0,0-1.875-.875c-0.75,0-1.125.75-1.875,1.375l-3.5,3.25H811.4Zm29.875,3V310.5H810.646v-38.75h30.625Zm0,41.75v40H810.646v-40h30.625Zm8.625,40v-40h31.5v40H849.9Zm0-43v-38.75h31.5V310.5H849.9Zm199.5-21.125c1.12,0,1.87-.375,1.87-1.375a2.829,2.829,0,0,0-1.25-1.875l-8.62-6.375a5.707,5.707,0,0,0-2.5-1.25c-0.63,0-1.13.5-1.88,1.5l-4.62,6.375h-28.13c6.75-10.75,7.5-11.875,12.13-20.5,3.12-.75,4.37-1.375,4.37-2.625a2.013,2.013,0,0,0-1.25-1.75l-13.37-6.5a26.957,26.957,0,0,1-.75,8.375c-4.13,14.375-11.5,31.125-19.879,43.125l0.625,0.75c2.5-1.75,6-4.375,13.625-14.5,0,13,2.879,29.5,11,43.375a75.446,75.446,0,0,1-31.374,27l0.125,1.125c8.375-2.25,23-7.25,35.379-21.5,5.12,6.875,12.5,15.625,26.5,22.125,5.62-8.375,9.87-9,12.12-9.375V354.12c-8.25-1.5-22.75-5-34.12-17.375,9.37-14,12.5-29.75,14.12-38.625,4.13-1.875,4.75-2.375,4.75-3.5,0-1-.75-1.5-2-2.25l-5.25-3h18.38Zm-24.88,0a87,87,0,0,1-10.12,40.75c-10.13-15.75-12-32.25-12.5-40.375l0.25-.375h22.37Zm-68.749-2.25c2.5-7.625,3.75-12.375,4.625-16.25,1.875-.625,4.25-1.75,4.25-3.375,0-1.25-.875-1.625-2.125-2l-12.375-3.875a24.829,24.829,0,0,1,.875,5.5c0,1.625-1.875,23.375-11.625,49.25l0.875,0.375c7.75-10,11.25-18.5,14.375-26.625h13.625c-0.25,19.125-.25,21.25-0.375,27-3.125,1.125-16.5,5.625-23.5,5.625a11.313,11.313,0,0,1-3.125-.375l6,12.25a2.408,2.408,0,0,0,2,1.625c1.25,0,2-1,3.75-4.625,2.125-1.125,12.375-6.125,14.75-7.375l-0.75,30.875c0,0.5-.375,9-0.375,9.625,0,3,2.125,3.75,4.125,3.75,1.375,0,6.25-.875,6.25-5.875,0-1.25-.5-7.625-0.5-9-0.25-9.125-.25-12.625-0.5-33.5A148.03,148.03,0,0,0,996.4,308.5l-0.125-1c-2.875,1-17,5.875-20.25,6.875v-5.5c0-2.75,0-15.75.125-18.75h15.5c1.125,0,1.875-.375,1.875-1.25a3.561,3.561,0,0,0-1.25-2l-5.25-5a3.423,3.423,0,0,0-2.375-1.25c-0.625,0-1.125.5-1.875,1.5l-3.375,5h-3.25c0.125-14.75.125-20,.125-21.125v-2.5c2.25-1.375,4.375-2.875,4.375-4.625,0-.75-1.25-1.375-2-1.5l-11.875-2.75C966.9,255.5,967.9,260,967.9,261c0.25,1.125.375,21.75,0.375,26.125h-12.5Zm228.5-23a2.422,2.422,0,0,0-1.37-1.75l-5.25-3.875a3.759,3.759,0,0,0-1.75-.875c-0.5,0-.88.375-1.5,1.125l-2.88,3.125H1150.4l-10.25-5.25c0.87,4.625,1.25,7.75,1.25,18.25,0,5.75-.25,17.875-0.5,23.5,0,0.375-.25,2.125-0.25,2.75,0,0.875,0,2.875,3.37,2.875,5.88,0,5.75-4,5.75-6.5h22.25c-0.25,3.125-.37,5.625,2.88,5.625,1.37,0,6-.75,6-4.875,0-1.625-.25-9.5-0.38-11.25-0.12-4.375-.25-8.625-0.25-19.25C1182.27,266.62,1184.27,265.37,1184.27,264.12ZM1172.15,277.5h-22.5V264.87h22.5V277.5Zm0,17h-22.5v-14h22.5v14Zm31.5,14.875a2.7,2.7,0,0,0-1.25-1.875l-7.88-6.25c-1.12-.875-1.62-1.25-2.25-1.25s-1.37.875-1.87,1.5l-4.5,6.25h-46.13c-3.62,0-11.37-.25-19.25-0.875l2.5,5a89.085,89.085,0,0,1,14.75-1.125h3a107.224,107.224,0,0,1-23.62,33.5l0.62,0.625a70.592,70.592,0,0,0,23.5-19.5h8.13c-4,8.125-19.38,31.125-35.75,40.25l0.37,0.75c19.25-5.875,35.38-22.375,45.38-41h7.5c-4.88,14.5-16.88,32.5-31.13,43l0.5,0.625c16.25-5.25,32.63-21.75,40.38-43.625h8.12a100.573,100.573,0,0,1-2.87,22.125c-2.5,9.75-4.38,10.625-7.25,10.625-2.38,0-5-.25-12.13-1.75l-0.12,1c6.62,5.375,8.12,9.125,8.5,12.75,9.25-.375,19.75-2.625,22.37-41.875,1.75-.75,4.63-1.875,4.63-3.75a2.269,2.269,0,0,0-1.25-1.75l-6.25-4.625a4.769,4.769,0,0,0-2.13-1.25,2.668,2.668,0,0,0-1.62,1.375l-3.13,4.125h-39.87a61.348,61.348,0,0,0,7.12-11.625h51C1202.52,310.745,1203.65,310.62,1203.65,309.37Zm-70.75-19.75c0-.5-0.25-1-1.25-1.875l-5.5-5.125a3.962,3.962,0,0,0-2.38-1.375c-0.62,0-1.37,1-1.75,1.625l-3.5,5.125h-3.75c0-3.25,0-19.125.13-22.625,1.87-.75,4.25-1.75,4.25-3.375,0-1.375-1.25-1.625-2.75-2.125l-13.38-4a40.264,40.264,0,0,1,1.75,5.5c1,4.625,1.25,20.875,1.38,26.625-8-.25-11.88-0.5-16.5-0.875l2.37,5A89.721,89.721,0,0,1,1106.15,291c0,10.875.12,27.875,0.12,39.375-11,3.875-12.25,4.375-19.37,4.375l5.87,11.25c0.38,0.625,1.25,2.125,2.25,2.125,1.25,0,1.88-1,2.63-4.125,11.75-7.375,27.62-17.5,33.75-23.125l-0.5-.875c-2.75,1.375-5.13,2.5-16.13,7,0-12-.12-24.375,0-36h16.25C1131.77,291,1132.9,290.87,1132.9,289.62Z"/><path id="t1" class="cls-1" d="M6.364,6.928c0,1.708,2.2,3.416,3.9,3.9,3.172,0.732,6.344,1.708,10.492,2.928A14.339,14.339,0,0,1,31.74,27.912c-0.488,18.3-5.856,88.573-8.3,105.409C21.492,147.23,20.028,151.378,4.9,155.77c-3.172.732-4.88,2.44-4.88,3.416,0,2.684,2.684,3.416,6.344,3.416,6.1,0,13.664-.732,19.52-0.732,6.344,0,16.592.732,24.4,0.732,3.9,0,6.588-.976,6.588-2.928,0-2.2-1.22-3.172-6.588-4.636-12.444-3.9-14.4-7.32-14.884-19.765-0.732-22.448,1.952-83.937,3.9-94.185,0.244-2.684.976-2.44,1.708-.732,9.028,20.74,29.036,59.293,42.213,91.5a265.634,265.634,0,0,1,9.028,25.865c0.732,2.684,2.2,4.636,3.66,4.636,1.708,0,2.928.244,5.612-6.832,3.66-9.516,9.272-22.205,15.128-34.893,9.517-20.008,36.845-73.689,39.529-78.325,1.464-2.44,2.44-.976,2.44.732,0.732,12.444,1.22,83.2.244,94.185-0.732,9.029-1.22,14.641-11.224,17.569-3.416.976-6.344,2.2-6.344,4.392,0,2.44,3.9,3.416,6.588,3.416,5.856,0,13.908-.732,18.544-0.732,9.028,0,27.817,1.22,30.5,1.22,3.66,0,7.076-1.22,7.076-3.172,0-1.708-2.2-3.66-6.588-4.636-11.713-3.416-14.4-5.856-15.861-16.837-0.732-6.832-3.416-37.82-3.416-105.653,0-12.688,3.9-17.324,7.564-18.788a56.637,56.637,0,0,1,10.981-3.172c4.392-.732,6.344-2.2,6.344-3.9,0-2.2-3.172-2.684-6.344-2.684-2.2,0-21.961.732-30.745,0.732-0.488,0-2.44,2.2-2.684,3.416-1.464,4.88-5.368,13.176-5.612,14.152-3.9,10.248-49.533,96.381-51.729,100.529-0.488.732-1.952,0-2.44-.732-3.416-4.636-31.72-63.2-45.384-91.989-4.88-10.492-6.344-13.176-9.272-22.2-0.244-1.22-2.2-3.172-2.684-3.172-14.152,0-16.836-.488-32.7-0.488C8.072,4.488,6.364,4.488,6.364,6.928Zm236.678,75.4c0,20.74-.488,46.116-1.22,54.656-0.976,11.469-1.952,15.129-14.152,17.813-4.88.976-7.32,2.44-7.32,4.148s1.708,3.416,6.344,3.416c9.028,0,11.224-.488,18.544-0.488,6.589,0,23.913,1.464,36.357,1.464,2.928,0,6.588-1.22,6.588-3.172,0-1.708-1.952-3.416-6.344-4.148-15.86-3.172-17.08-7.808-17.812-20.985-0.488-7.808-.732-22.936-0.732-36.356,0-47.825.244-63.685,1.464-71.737,0.976-6.588.732-12.688,14.884-15.616,3.9-.732,6.344-2.2,6.344-4.148s-2.2-2.928-6.1-2.928c-8.54,0-14.152.732-26.108,0.732-8.053,0-20.253-.732-26.6-0.732-3.416,0-6.1.976-6.1,2.928,0,1.708,1.464,3.416,6.832,4.392,13.664,2.44,13.664,6.1,14.4,17.324C242.8,36.94,243.042,67.2,243.042,82.325ZM367.236,2.78c-20.984,0-48.556,2.2-60.756,2.2h-6.832c-3.661,0-5.856,1.22-5.856,3.172,0,1.708,2.927,3.416,5.611,3.9,14.885,2.2,15.129,5.612,15.617,21.228,0.732,20.008,1.22,48.8,1.22,62.709,0,14.4-.244,21.96-0.732,33.428-0.732,19.277-1.952,23.913-18.789,25.865-2.927.244-5.368,1.464-5.368,3.416s2.2,3.66,7.808,3.66c3.905,0,8.3,0,12.933.244,16.1,1.22,37.82,1.952,47.824,1.952,23.425,0,43.677-5.368,58.073-13.664,17.08-9.516,39.041-35.137,39.041-70.517,0-19.276-9.028-41.237-22.2-53.925C425.065,17.42,401.4,2.78,367.236,2.78ZM356.5,10.344c18.057,0,38.553,5.368,50.753,14.4,15.616,11.712,26.108,34.649,26.108,55.633,0,27.328-10.492,48.556-25.132,61-13.664,11.468-34.4,15.86-45.629,15.86-5.368,0-15.372-2.928-20.008-6.344-0.732-.488-4.636-3.9-5.368-11.469-0.732-10.736-.976-25.132-0.976-42.212V61.828c0-21.716.488-43.433,0.976-46.361,0.244-1.464.732-1.952,2.44-3.172C341.86,11.076,347.716,10.344,356.5,10.344ZM565.6,4.976c-7.564,0-16.348-.732-27.084-0.732-3.9,0-6.833.976-6.833,2.928,0,1.708,1.22,2.928,6.1,4.148,10.736,2.684,14.884,6.832,15.372,15.128,0.488,6.344.488,20.74,0.488,43.677,0,48.312-1.22,66.368-1.952,73.933-0.244,3.172-.732,8.784-13.908,11.956-3.905.976-6.589,2.928-6.589,4.88,0,1.464,1.952,2.44,6.833,2.44,5.124,0,19.276-1.464,29.036-1.464,9.272,0,16.836.732,23.18,0.732,4.636,0,6.832-1.464,6.832-2.928,0-2.2-2.2-3.9-5.856-4.636-15.86-2.928-16.348-7.808-16.592-15.373-0.244-7.076-1.22-41.236-.976-45.872,0.244-.976,1.22-2.928,1.952-2.928,5.124-.732,16.836-0.732,21.472-0.732a136.625,136.625,0,0,1,16.349,1.22c4.636,1.22,7.564,2.44,10,11.712,0.976,3.416,2.44,5.124,3.66,5.124,2.44,0,3.66-2.928,3.66-5.612,0-5.368-.488-7.564-0.488-19.276,0-4.392,1.22-12.2,1.22-15.372,0-2.928-.488-5.368-2.2-5.368-2.2,0-3.172,2.44-4.636,5.856-3.416,8.3-5.612,10.492-13.176,11.224-5.856.488-25.621,0.244-35.137,0.244-1.22,0-2.44-2.44-2.44-9.028,0-16.1.488-48.069,0.976-53.925,0-.732,1.464-2.928,3.9-3.172,5.124-.488,29.524-0.732,37.821.488,8.052,1.22,10.736,3.416,14.64,15.372,1.464,4.88,3.416,7.564,5.368,7.564,2.2,0,3.66-3.416,3.416-6.588-0.244-8.3-1.22-16.836-.732-23.912a2.7,2.7,0,0,0-2.928-2.44c-1.952,0-24.4.732-39.041,0.732H565.6Zm111.75,77.349c0,20.74-.488,46.116-1.22,54.656-0.976,11.469-1.952,15.129-14.152,17.813-4.88.976-7.32,2.44-7.32,4.148s1.708,3.416,6.344,3.416c9.028,0,11.224-.488,18.544-0.488,6.588,0,23.912,1.464,36.356,1.464,2.929,0,6.589-1.22,6.589-3.172,0-1.708-1.952-3.416-6.345-4.148-15.86-3.172-17.08-7.808-17.812-20.985-0.488-7.808-.732-22.936-0.732-36.356,0-47.825.244-63.685,1.464-71.737,0.976-6.588.732-12.688,14.884-15.616,3.9-.732,6.345-2.2,6.345-4.148s-2.2-2.928-6.1-2.928c-8.539,0-14.152.732-26.108,0.732-8.052,0-20.252-.732-26.6-0.732-3.416,0-6.1.976-6.1,2.928,0,1.708,1.464,3.416,6.832,4.392,13.664,2.44,13.664,6.1,14.4,17.324C677.109,36.94,677.353,67.2,677.353,82.325ZM773.487,4.976C757.138,4.976,747.622,4,736.154,4c-3.416,0-6.832,1.22-6.832,3.416,0,1.952,1.952,2.928,7.076,4.148,10.736,2.44,13.176,5.368,13.664,16.1,0.488,7.076.244,12.2,0.244,41.237,0,30.256-1.22,59.049-1.952,69.3-0.976,13.177-5.612,14.885-17.812,17.813-3.9.976-6.832,2.2-6.832,3.9,0,2.684,2.684,3.172,7.32,3.172,9.272,0,14.64-1.22,27.572-1.22,39.773,0,76.617,1.952,79.3,1.952,1.22,0,3.416-1.952,4.148-2.928,1.708-2.2,8.54-24.157,8.784-26.109,0.488-2.684-.244-6.588-1.952-6.588-1.464,0-2.928,1.464-5.612,6.832-5.856,11.469-12.444,16.1-20.253,18.057-5.368,1.464-20.252,1.708-23.18,1.708a137.752,137.752,0,0,1-22.2-1.708c-1.708-.488-3.66-2.44-4.636-5.368-1.464-3.9-2.44-13.177-2.44-20.253,0-10.492-.244-33.184.732-38.308,0-.488,1.22-2.2,2.2-2.2,6.588,0,16.348,0,24.156.488,14.884,0.732,15.86,1.464,19.276,12.688,0.732,2.684,2.44,5.368,4.148,5.368s2.928-2.684,2.684-7.076c-0.244-4.88-.732-8.3-0.732-14.884,0-5.856.244-10.736,0.732-17.568,0.244-1.952-.244-5.368-1.952-5.368-1.464,0-2.928,1.464-4.392,5.124-4.392,11.224-5.368,12.2-28.3,12.2h-15.86c-1.22,0-1.464-1.464-1.708-2.44-0.488-3.66.244-49.533,0.732-55.633,0.488-5.612,3.172-6.832,3.66-6.832,10.736-.488,28.3,0,34.648.976,7.808,1.22,13.176,3.66,16.348,16.592,0.488,2.44,1.708,5.856,3.9,5.856s3.659-2.928,3.659-6.344c0-4.88-.488-11.956-0.488-23.18-0.244-1.22-1.463-2.928-2.2-2.684-3.66.488-14.4,0.732-22.448,0.732H773.487Zm89.3,2.44c0,1.708,1.952,3.66,6.832,4.636,11.468,2.2,12.688,6.832,12.932,12.2C882.8,32.3,882.8,49.14,882.8,58.9c0,35.381-.732,74.177-1.22,80.277-1.22,9.517-4.636,14.153-18.056,16.837-3.9.732-5.856,2.684-5.856,4.392,0,2.2,2.44,2.684,7.076,2.684,3.416,0,14.884-1.22,31.477-1.22,49.532,0,71.737,1.464,74.665,1.464,0.976,0,5.612-1.464,5.856-4.148,1.952-9.272,3.66-14.4,7.564-26.353,0.976-3.9.244-6.588-.976-6.588s-3.416.976-6.1,5.368a105.877,105.877,0,0,1-13.908,16.349c-4.881,4.392-7.808,4.392-9.76,4.636a158.423,158.423,0,0,1-17.325.732c-8.052,0-17.08-.244-23.424-1.22-1.952-.244-7.808-5.856-8.3-9.272-0.976-8.053-1.708-31.477-1.708-50.509,0-36.113,0-60.757,1.464-71.737,0.488-3.66,2.2-6.344,16.348-9.516,3.66-.976,5.612-2.44,5.612-4.148s-1.708-2.684-6.1-2.684c-5.856,0-22.448.732-31.964,0.732-7.077,0-11.469-.488-18.057-0.488C864.739,4.488,862.787,5.708,862.787,7.416ZM1061.4,2.78c-20.98,0-48.55,2.2-60.75,2.2h-6.836c-3.66,0-5.856,1.22-5.856,3.172,0,1.708,2.928,3.416,5.612,3.9,14.88,2.2,15.13,5.612,15.62,21.228,0.73,20.008,1.22,48.8,1.22,62.709,0,14.4-.25,21.96-0.74,33.428-0.73,19.277-1.95,23.913-18.784,25.865-2.928.244-5.368,1.464-5.368,3.416s2.2,3.66,7.808,3.66c3.9,0,8.294,0,12.934.244,16.1,1.22,37.82,1.952,47.82,1.952,23.43,0,43.68-5.368,58.08-13.664,17.08-9.516,39.04-35.137,39.04-70.517,0-19.276-9.03-41.237-22.21-53.925C1119.23,17.42,1095.56,2.78,1061.4,2.78Zm-10.73,7.564c18.05,0,38.55,5.368,50.75,14.4,15.62,11.712,26.11,34.649,26.11,55.633,0,27.328-10.49,48.556-25.13,61-13.67,11.468-34.41,15.86-45.63,15.86-5.37,0-15.37-2.928-20.01-6.344-0.73-.488-4.64-3.9-5.37-11.469-0.73-10.736-.98-25.132-0.98-42.212V61.828c0-21.716.49-43.433,0.98-46.361,0.24-1.464.73-1.952,2.44-3.172C1036.03,11.076,1041.88,10.344,1050.67,10.344Zm194.46-5.368c-7.56,0-16.35-.732-27.08-0.732-3.91,0-6.84.976-6.84,2.928,0,1.708,1.22,2.928,6.1,4.148,10.74,2.684,14.89,6.832,15.38,15.128,0.48,6.344.48,20.74,0.48,43.677,0,48.312-1.22,66.368-1.95,73.933-0.24,3.172-.73,8.784-13.91,11.956-3.9.976-6.58,2.928-6.58,4.88,0,1.464,1.95,2.44,6.83,2.44,5.12,0,19.27-1.464,29.03-1.464,9.28,0,16.84.732,23.18,0.732,4.64,0,6.84-1.464,6.84-2.928,0-2.2-2.2-3.9-5.86-4.636-15.86-2.928-16.35-7.808-16.59-15.373-0.25-7.076-1.22-41.236-.98-45.872,0.25-.976,1.22-2.928,1.95-2.928,5.13-.732,16.84-0.732,21.48-0.732a136.372,136.372,0,0,1,16.34,1.22c4.64,1.22,7.57,2.44,10.01,11.712,0.97,3.416,2.44,5.124,3.66,5.124,2.44,0,3.66-2.928,3.66-5.612,0-5.368-.49-7.564-0.49-19.276,0-4.392,1.22-12.2,1.22-15.372,0-2.928-.49-5.368-2.2-5.368-2.19,0-3.17,2.44-4.63,5.856-3.42,8.3-5.61,10.492-13.18,11.224-5.85.488-25.62,0.244-35.13,0.244-1.22,0-2.44-2.44-2.44-9.028,0-16.1.48-48.069,0.97-53.925,0-.732,1.47-2.928,3.91-3.172,5.12-.488,29.52-0.732,37.82.488,8.05,1.22,10.73,3.416,14.64,15.372,1.46,4.88,3.41,7.564,5.36,7.564,2.2,0,3.66-3.416,3.42-6.588-0.24-8.3-1.22-16.836-.73-23.912a2.706,2.706,0,0,0-2.93-2.44c-1.95,0-24.4.732-39.04,0.732h-31.72ZM1406.9,0.584c-1.22,0-2.2,1.22-3.9,3.172-1.71,2.684-4.4,7.32-5.86,9.76a30.242,30.242,0,0,0-1.71,4.148,50.556,50.556,0,0,1-2.19,6.344c-10.25,24.888-38.07,98.577-43.68,111.021-7.08,15.861-10.25,16.593-22.45,20.741-3.66,1.22-5.37,3.416-5.37,4.88s1.22,2.44,5.62,2.44c3.66,0,16.34-1.22,25.37-1.22s15.13,0.732,19.28.732c3.17,0,6.83-.732,6.83-3.172,0-1.708-2.44-3.172-6.59-4.392-10.98-3.416-11.95-7.564-11.95-10.492,0-6.1,6.34-26.841,12.68-42.7,0.49-.732,1.71-1.952,2.69-1.952,5.12-.732,26.59-0.976,40.01-0.976,7.08,0,8.06,1.464,8.3,2.44,5.61,15.616,11.71,31.72,13.66,41.725,0.98,5.124,1.96,10-9.76,12.444-4.39.732-5.85,2.684-5.85,3.9s1.46,2.928,7.56,2.928,9.52-.488,17.33-0.488c10.73,0,22.69,1.22,30.74,1.22,6.1,0,7.81-1.464,7.81-3.172s-1.95-2.928-5.86-4.148c-10.98-2.684-14.88-4.636-22.93-24.645-4.15-10-22.45-58.316-35.14-93.941-4.64-12.688-8.78-23.668-10.74-30.256C1408.85,1.56,1407.88.584,1406.9,0.584Zm10.98,87.353c-8.05.732-28.3,0.488-38.06,0.732a1.23,1.23,0,0,1-1.22-1.708c1.95-7.564,14.64-41.725,19.03-53.437,0.73-1.708,1.22-1.464,1.95,0,2.2,3.416,14.88,40.017,19.03,52.461A2.1,2.1,0,0,1,1417.88,87.937ZM1604.3,44.5c0-11.712-5.86-23.912-13.91-30.5-9.76-8.052-22.94-10.248-39.78-10.248-13.17,0-30.5,1.22-39.52,1.22h-13.67c-5.37,0-6.59,1.22-6.59,2.928,0,1.952,2.2,3.172,5.86,4.148,10.98,2.684,13.18,3.172,14.15,12.2,0.98,9.516,1.47,31.721,1.47,69.3,0,14.64-.98,40.5-1.47,48.069-0.73,9.272-5.12,10.736-15.86,14.152-3.17,1.22-5.37,1.708-5.37,3.66,0,2.44,3.18,3.416,6.35,3.416,2.68,0,15.37-.976,19.76-0.976,16.59,0,21.23,1.464,31.48,1.464,1.22,0,5.86-.732,5.86-3.172,0-1.22-1.71-2.928-5.86-4.148-11.47-2.684-14.15-6.1-14.64-16.349-0.73-14.152-1.22-45.14-.98-49.288,0-.732,1.22-2.928,2.93-2.928,7.32,0,16.35,2.2,17.33,3.172,1.46,0.976,6.34,7.076,9.76,12.2,9.76,15.372,22.2,34.16,30.74,45.873,7.08,9.028,20.98,15.86,32.45,15.86,5.13,0,10.49-.488,13.42-1.708,1.47-.732,3.42-1.708,3.42-3.172,0-.976-1.95-2.928-3.91-3.416-10.73-2.2-17.32-6.588-23.91-14.4-14.88-16.593-35.38-49.533-37.82-55.389a3.91,3.91,0,0,1,.98-3.66c1.71-1.22,6.34-3.416,7.56-4.148C1596.49,71.345,1604.3,57.68,1604.3,44.5Zm-21.72.488a36.715,36.715,0,0,1-16.1,30.256c-3.42,2.2-16.35,6.344-30.51,6.344-1.46,0-3.41-1.708-3.9-3.66-0.73-4.148,0-51.241.73-59.781,0-.976,1.71-4.636,2.93-5.124,2.68-1.22,10.49-1.708,11.71-1.708,7.81,0,18.3,3.66,24.16,9.272C1578.68,27.668,1582.58,39.136,1582.58,44.992Zm58.8-38.064c0,1.708,2.2,3.416,3.91,3.9,3.17,0.732,6.34,1.708,10.49,2.928a14.342,14.342,0,0,1,10.98,14.152c-0.49,18.3-5.86,88.573-8.3,105.409-1.95,13.909-3.41,18.057-18.54,22.449-3.17.732-4.88,2.44-4.88,3.416,0,2.684,2.68,3.416,6.34,3.416,6.1,0,13.67-.732,19.52-0.732,6.35,0,16.59.732,24.4,0.732,3.91,0,6.59-.976,6.59-2.928,0-2.2-1.22-3.172-6.59-4.636-12.44-3.9-14.39-7.32-14.88-19.765-0.73-22.448,1.95-83.937,3.9-94.185,0.25-2.684.98-2.44,1.71-.732,9.03,20.74,29.04,59.293,42.21,91.5a265.224,265.224,0,0,1,9.03,25.865c0.73,2.684,2.2,4.636,3.66,4.636,1.71,0,2.93.244,5.61-6.832,3.66-9.516,9.27-22.205,15.13-34.893,9.52-20.008,36.85-73.689,39.53-78.325,1.46-2.44,2.44-.976,2.44.732,0.73,12.444,1.22,83.2.24,94.185-0.73,9.029-1.22,14.641-11.22,17.569-3.42.976-6.34,2.2-6.34,4.392,0,2.44,3.9,3.416,6.58,3.416,5.86,0,13.91-.732,18.55-0.732,9.03,0,27.81,1.22,30.5,1.22,3.66,0,7.07-1.22,7.07-3.172,0-1.708-2.19-3.66-6.58-4.636-11.72-3.416-14.4-5.856-15.86-16.837-0.74-6.832-3.42-37.82-3.42-105.653,0-12.688,3.9-17.324,7.56-18.788a56.709,56.709,0,0,1,10.98-3.172c4.4-.732,6.35-2.2,6.35-3.9,0-2.2-3.17-2.684-6.35-2.684-2.19,0-21.96.732-30.74,0.732-0.49,0-2.44,2.2-2.68,3.416-1.47,4.88-5.37,13.176-5.62,14.152-3.9,10.248-49.53,96.381-51.73,100.529-0.48.732-1.95,0-2.44-.732-3.41-4.636-31.72-63.2-45.38-91.989-4.88-10.492-6.34-13.176-9.27-22.2-0.25-1.22-2.2-3.172-2.69-3.172-14.15,0-16.83-.488-32.69-0.488C1643.09,4.488,1641.38,4.488,1641.38,6.928Z"/></svg>